<svg width="48" height="48" viewBox="0 0 48 48" fill="none" xmlns="http://www.w3.org/2000/svg">
<path d="M15.1136 20.913C13.6702 20.913 12.5 22.1296 12.5 23.6304V26.8912C12.5 28.392 13.6702 29.6086 15.1136 29.6086C16.5571 29.6086 17.7273 28.392 17.7273 26.8912V23.6304C17.7273 22.1296 16.5571 20.913 15.1136 20.913Z" fill="#FAFBFC"/>
<path d="M17.7706 30.6945C17.7201 30.0965 18.1953 29.6086 18.7727 29.6086H29.2273C29.8047 29.6086 30.2799 30.0965 30.2294 30.6945C29.9877 33.5559 28.6446 36.1304 24 36.1304C19.3554 36.1304 18.0123 33.5559 17.7706 30.6945Z" fill="#FAFBFC"/>
<path d="M32.8864 20.913C31.4429 20.913 30.2727 22.1296 30.2727 23.6304V26.8912C30.2727 28.392 31.4429 29.6086 32.8864 29.6086C34.3298 29.6086 35.5 28.392 35.5 26.8912V23.6304C35.5 22.1296 34.3298 20.913 32.8864 20.913Z" fill="#FAFBFC"/>
<path fill-rule="evenodd" clip-rule="evenodd" d="M43.3517 5.30405C42.8116 3.32403 40.8413 2.11624 38.8743 2.7054C37.7105 3.05397 35.9358 3.66361 34.1404 4.58808C32.509 5.42808 30.6971 6.61012 29.3463 8.23375C27.7111 7.99558 25.9327 7.86945 24 7.86945C22.0573 7.86945 20.2706 7.99688 18.6284 8.23745C17.2804 6.62938 15.4809 5.45682 13.8596 4.62204C12.0642 3.69758 10.2895 3.08793 9.12573 2.73937C7.1587 2.15021 5.18838 3.35799 4.6483 5.33802C4.22791 6.8792 3.5761 9.55022 3.20763 12.4949C2.94363 14.6049 2.80591 16.9944 3.06867 19.2612C1.53161 22.8303 1 26.8572 1 30.7532C1 40.2939 5.45455 47 24 47C42.5455 47 47 40.363 47 30.7532C47 26.8546 46.4677 22.8249 44.9282 19.2539C45.1952 16.9793 45.0574 14.5792 44.7924 12.461C44.4239 9.51626 43.7721 6.84523 43.3517 5.30405ZM41.7726 27.4347C42.8182 35.0434 38.6363 41.5652 23.9997 41.5652C9.3631 41.5652 5.18179 35.0434 6.22707 27.4347C7.44534 18.739 12.4996 14.3912 23.9997 14.3912C35.4998 14.3912 40.5776 18.739 41.7726 27.4347Z" fill="#FAFBFC"/>
</svg>
